# xmcd
#
# Track frame offsets:
#        150
#        28962
#        55820
#        87567
#        116555
#        151680
#        172917
#        197015
#        230817
#
# Disc length: 3587 seconds
#
# Revision: 4
# Processed by: cddbd v1.5.1PL0 Copyright (c) Steve Scherf et al.
# Submitted via: ExactAudioCopy v0.95a5
#
DISCID=710e0109
DTITLE=Various Artist - Warp10+2: Classics 89-92 (Disc4)
DYEAR=1999
DGENRE=Electronic
TTITLE0=Nightmares On Wax - I'm For Real
TTITLE1=Nightmares On Wax - Aftermath
TTITLE2=Tricky Disco - Tricky Disco
TTITLE3=The Step - Yeah You [Robert's Mix]
TTITLE4=Sweet Exorcist - Clonk [Freebass]
TTITLE5=Tuff Little Unit - Join The Future
TTITLE6=Nightmares On Wax - A Case Of Funk
TTITLE7=Coco Steel And Lovebomb - Feel It
TTITLE8=LFO Versus F.U.S.E - Loop
EXTD=http://www.warprecords.com
EXTT0=
EXTT1=
EXTT2=
EXTT3=
EXTT4=
EXTT5=
EXTT6=
EXTT7=
EXTT8=
PLAYORDER=
